<svg xmlns="http://www.w3.org/2000/svg" width="600" height="800" viewBox="0 0 600 800">
  <!-- Background -->
  <rect width="600" height="800" fill="#ffffff" />
  
  <!-- Header -->
  <rect x="50" y="50" width="500" height="80" fill="#4a90e2" />
  <text x="70" y="100" font-family="Arial" font-size="24" font-weight="bold" fill="#ffffff">Invoice Data</text>
  
  <!-- Tabs -->
  <rect x="50" y="130" width="500" height="40" fill="#f8f9fa" />
  <rect x="50" y="130" width="100" height="40" fill="#e6f0ff" />
  <text x="80" y="155" font-family="Arial" font-size="14" font-weight="bold" fill="#4a90e2">Table View</text>
  <text x="200" y="155" font-family="Arial" font-size="14" fill="#666666">JSON View</text>
  
  <!-- Content -->
  <rect x="50" y="170" width="500" height="580" fill="#ffffff" stroke="#eeeeee" stroke-width="1" />
  
  <!-- Field-Value Pairs -->
  <rect x="50" y="170" width="500" height="50" fill="#f8f9fa" stroke="#eeeeee" stroke-width="1" />
  <text x="70" y="200" font-family="Arial" font-size="14" font-weight="bold" fill="#333333">Field</text>
  <text x="350" y="200" font-family="Arial" font-size="14" font-weight="bold" fill="#333333">Value</text>
  
  <rect x="50" y="220" width="500" height="50" fill="#ffffff" stroke="#eeeeee" stroke-width="1" />
  <text x="70" y="250" font-family="Arial" font-size="14" fill="#333333">Invoice Number</text>
  <text x="350" y="250" font-family="Arial" font-size="14" fill="#333333">INV-2023-001</text>
  
  <rect x="50" y="270" width="500" height="50" fill="#f8f9fa" stroke="#eeeeee" stroke-width="1" />
  <text x="70" y="300" font-family="Arial" font-size="14" fill="#333333">Date</text>
  <text x="350" y="300" font-family="Arial" font-size="14" fill="#333333">2023-10-26</text>
  
  <rect x="50" y="320" width="500" height="50" fill="#ffffff" stroke="#eeeeee" stroke-width="1" />
  <text x="70" y="350" font-family="Arial" font-size="14" fill="#333333">Due Date</text>
  <text x="350" y="350" font-family="Arial" font-size="14" fill="#333333">2023-11-25</text>
  
  <rect x="50" y="370" width="500" height="50" fill="#f8f9fa" stroke="#eeeeee" stroke-width="1" />
  <text x="70" y="400" font-family="Arial" font-size="14" fill="#333333">Total Amount</text>
  <text x="350" y="400" font-family="Arial" font-size="14" font-weight="bold" fill="#4a90e2">$1,250.00</text>
  
  <rect x="50" y="420" width="500" height="50" fill="#ffffff" stroke="#eeeeee" stroke-width="1" />
  <text x="70" y="450" font-family="Arial" font-size="14" fill="#333333">Currency</text>
  <text x="350" y="450" font-family="Arial" font-size="14" fill="#333333">USD</text>
  
  <rect x="50" y="470" width="500" height="50" fill="#f8f9fa" stroke="#eeeeee" stroke-width="1" />
  <text x="70" y="500" font-family="Arial" font-size="14" fill="#333333">Vendor</text>
  <text x="350" y="500" font-family="Arial" font-size="14" fill="#333333">Tech Solutions Inc.</text>
  
  <rect x="50" y="520" width="500" height="50" fill="#ffffff" stroke="#eeeeee" stroke-width="1" />
  <text x="70" y="550" font-family="Arial" font-size="14" fill="#333333">Customer</text>
  <text x="350" y="550" font-family="Arial" font-size="14" fill="#333333">Global Corp</text>
  
  <!-- Items Section -->
  <text x="70" y="600" font-family="Arial" font-size="16" font-weight="bold" fill="#333333">Line Items</text>
  
  <rect x="70" y="620" width="460" height="40" fill="#f0f7ff" />
  <text x="90" y="645" font-family="Arial" font-size="12" font-weight="bold" fill="#333333">Description</text>
  <text x="250" y="645" font-family="Arial" font-size="12" font-weight="bold" fill="#333333">Quantity</text>
  <text x="330" y="645" font-family="Arial" font-size="12" font-weight="bold" fill="#333333">Unit Price</text>
  <text x="430" y="645" font-family="Arial" font-size="12" font-weight="bold" fill="#333333">Total</text>
  
  <rect x="70" y="660" width="460" height="30" fill="#ffffff" stroke="#eeeeee" stroke-width="1" />
  <text x="90" y="680" font-family="Arial" font-size="12" fill="#333333">Consulting Services</text>
  <text x="250" y="680" font-family="Arial" font-size="12" fill="#333333">10</text>
  <text x="330" y="680" font-family="Arial" font-size="12" fill="#333333">$100.00</text>
  <text x="430" y="680" font-family="Arial" font-size="12" fill="#333333">$1,000.00</text>
  
  <rect x="70" y="690" width="460" height="30" fill="#f8f9fa" stroke="#eeeeee" stroke-width="1" />
  <text x="90" y="710" font-family="Arial" font-size="12" fill="#333333">Travel Expenses</text>
  <text x="250" y="710" font-family="Arial" font-size="12" fill="#333333">1</text>
  <text x="330" y="710" font-family="Arial" font-size="12" fill="#333333">$250.00</text>
  <text x="430" y="710" font-family="Arial" font-size="12" fill="#333333">$250.00</text>
  
  <!-- Export Button -->
  <rect x="400" y="740" width="150" height="40" rx="4" ry="4" fill="#f0f7ff" stroke="#4a90e2" stroke-width="1" />
  <text x="430" y="765" font-family="Arial" font-size="14" fill="#4a90e2">Export to Excel</text>
</svg>